<svg width="30" height="30" viewBox="0 0 30 30" fill="none" xmlns="http://www.w3.org/2000/svg">
<path d="M23.8438 30H6.15624C2.75264 30 0 27.2474 0 23.8438V6.15623C0 2.75264 2.75264 0 6.15624 0H23.8438C27.2474 0 30 2.75264 30 6.15623V23.8438C30 27.2288 27.2474 30 23.8438 30Z" fill="#09B0E7"/>
<path d="M8.60156 22.5H23.0608C24.1339 22.5 25 21.6359 25 20.5651C25 19.4943 24.1339 18.6301 23.0608 18.6301H11.2185L8.60156 22.5Z" fill="url(#paint0_linear_2301_2051)"/>
<path d="M19.9921 18.1233L13.9862 9.55704C13.3649 8.67412 13.5909 7.47183 14.4569 6.8519C15.3418 6.23197 16.5467 6.4574 17.168 7.32154L24.793 18.1985L19.9921 18.1233Z" fill="url(#paint1_linear_2301_2051)"/>
<path d="M12.5364 8.95563L5.34445 19.1938C4.74199 20.058 4.94908 21.2603 5.81513 21.8614C6.68118 22.4626 7.8861 22.2559 8.48857 21.3918L15.0028 12.1116L12.5364 8.95563Z" fill="url(#paint2_linear_2301_2051)"/>
<defs>
<linearGradient id="paint0_linear_2301_2051" x1="21.3852" y1="29.4883" x2="4.0614" y2="20.5528" gradientUnits="userSpaceOnUse">
<stop offset="0.165372" stop-color="white"/>
<stop offset="0.568606" stop-color="white" stop-opacity="0.6"/>
<stop offset="0.718278" stop-color="white" stop-opacity="0"/>
</linearGradient>
<linearGradient id="paint1_linear_2301_2051" x1="16.0195" y1="6.00654" x2="20.1439" y2="28.177" gradientUnits="userSpaceOnUse">
<stop offset="0.103037" stop-color="white"/>
<stop offset="0.436149" stop-color="white" stop-opacity="0.6"/>
<stop offset="0.575776" stop-color="white" stop-opacity="0"/>
</linearGradient>
<linearGradient id="paint2_linear_2301_2051" x1="7.45309" y1="22.5377" x2="25.0025" y2="5.18744" gradientUnits="userSpaceOnUse">
<stop offset="0.0771973" stop-color="white"/>
<stop offset="0.332373" stop-color="white" stop-opacity="0.6"/>
<stop offset="0.51343" stop-color="white" stop-opacity="0"/>
</linearGradient>
</defs>
</svg>
