<svg width="80" height="30" viewBox="0 0 80 30" fill="none" xmlns="http://www.w3.org/2000/svg">
<path d="M37.7344 21.5213H35.4394C35.2481 21.5213 35.1142 21.3354 35.1716 21.168L39.8381 8.26034C39.8955 8.11155 40.0294 8.01855 40.1824 8.01855H42.7642C42.9172 8.01855 43.0511 8.11155 43.1085 8.26034L47.7941 21.168C47.8515 21.3354 47.7176 21.5213 47.5264 21.5213H45.2314L44.1412 18.3781C44.103 18.2665 44.0074 18.1921 43.8926 18.1921H39.054C38.9392 18.1921 38.8245 18.2665 38.8054 18.3781L37.7344 21.5213ZM39.5704 16.2207H43.4336L41.5594 10.7712H41.4446L39.5704 16.2207Z" fill="#151515"/>
<path d="M50.5859 21.1494V8.37198C50.5859 8.16739 50.7581 8 50.9684 8H55.9027C56.6486 8 57.2988 8.09299 57.8726 8.26038C58.4463 8.42777 58.9244 8.68816 59.2878 9.00434C59.6512 9.32052 59.9381 9.6925 60.1293 10.1017C60.3206 10.5294 60.4162 10.9944 60.4162 11.4966C60.4162 12.2777 60.1867 12.9101 59.7468 13.3937C59.307 13.8772 58.7141 14.212 57.9873 14.3608V14.491C58.3698 14.5096 58.7332 14.6026 59.0775 14.7514C59.4217 14.9188 59.7468 15.1234 60.0337 15.4024C60.3206 15.6813 60.5501 16.0161 60.7031 16.4439C60.8561 16.8717 60.9517 17.318 60.9517 17.8016C60.9517 18.341 60.8561 18.8245 60.6457 19.2709C60.4544 19.7173 60.1485 20.1079 59.766 20.4427C59.3835 20.7774 58.8862 21.0378 58.2742 21.2238C57.6622 21.4098 56.9737 21.5028 56.1896 21.5028H50.9493C50.7581 21.5214 50.5859 21.354 50.5859 21.1494ZM53.0913 13.7471H55.5776C56.2469 13.7471 56.8016 13.5797 57.2223 13.2263C57.6622 12.8729 57.8726 12.4079 57.8726 11.8314C57.8726 11.292 57.6813 10.8642 57.2797 10.5294C56.8972 10.1947 56.3426 10.0273 55.6158 10.0273H53.0722V13.7471H53.0913ZM53.0913 19.4755H55.8071C56.6868 19.4755 57.3371 19.3081 57.7578 18.9919C58.1786 18.6758 58.389 18.2294 58.389 17.6528C58.389 17.0391 58.1595 16.5369 57.7005 16.1277C57.2415 15.7185 56.6294 15.5325 55.8644 15.5325H53.0913V19.4755Z" fill="#151515"/>
<path d="M66.4585 8.27898V21.2238C66.4585 21.3726 66.3246 21.5028 66.1716 21.5028H64.24C64.087 21.5028 63.9531 21.3726 63.9531 21.2238V8.27898C63.9531 8.13019 64.087 8 64.24 8H66.1716C66.3246 8 66.4585 8.13019 66.4585 8.27898Z" fill="#151515"/>
<path d="M69.7296 21.2238V19.9777L76.8442 10.0459H69.9783C69.8253 10.0459 69.6914 9.91568 69.6914 9.76689V8.27898C69.6914 8.13019 69.8253 8 69.9783 8H79.6747C79.8277 8 79.9615 8.13019 79.9615 8.27898V9.52511L72.847 19.4569H79.7129C79.8659 19.4569 79.9998 19.5871 79.9998 19.7359V21.2238C79.9998 21.3726 79.8659 21.5028 79.7129 21.5028H70.0165C69.8635 21.5214 69.7296 21.3912 69.7296 21.2238Z" fill="#151515"/>
<path d="M23.8438 30H6.15624C2.75264 30 0 27.2474 0 23.8438V6.15623C0 2.75264 2.75264 0 6.15624 0H23.8438C27.2474 0 30 2.75264 30 6.15623V23.8438C30 27.2288 27.2474 30 23.8438 30Z" fill="#09B0E7"/>
<path d="M8.60156 22.4998H23.0608C24.1339 22.4998 25 21.6356 25 20.5648C25 19.494 24.1339 18.6299 23.0608 18.6299H11.2185L8.60156 22.4998Z" fill="url(#paint0_linear_2566_30442)"/>
<path d="M19.9913 18.1233L13.9855 9.55704C13.3642 8.67412 13.5901 7.47183 14.4562 6.8519C15.341 6.23197 16.546 6.4574 17.1673 7.32154L24.7922 18.1985L19.9913 18.1233Z" fill="url(#paint1_linear_2566_30442)"/>
<path d="M12.5364 8.95605L5.34445 19.1943C4.74199 20.0584 4.94908 21.2607 5.81513 21.8618C6.68118 22.463 7.8861 22.2564 8.48857 21.3922L15.0028 12.1121L12.5364 8.95605Z" fill="url(#paint2_linear_2566_30442)"/>
<defs>
<linearGradient id="paint0_linear_2566_30442" x1="21.3852" y1="29.488" x2="4.0614" y2="20.5526" gradientUnits="userSpaceOnUse">
<stop offset="0.165372" stop-color="white"/>
<stop offset="0.568606" stop-color="white" stop-opacity="0.6"/>
<stop offset="0.718278" stop-color="white" stop-opacity="0"/>
</linearGradient>
<linearGradient id="paint1_linear_2566_30442" x1="16.0188" y1="6.00654" x2="20.1432" y2="28.177" gradientUnits="userSpaceOnUse">
<stop offset="0.103037" stop-color="white"/>
<stop offset="0.436149" stop-color="white" stop-opacity="0.6"/>
<stop offset="0.575776" stop-color="white" stop-opacity="0"/>
</linearGradient>
<linearGradient id="paint2_linear_2566_30442" x1="7.45309" y1="22.5381" x2="25.0025" y2="5.18787" gradientUnits="userSpaceOnUse">
<stop offset="0.0771973" stop-color="white"/>
<stop offset="0.332373" stop-color="white" stop-opacity="0.6"/>
<stop offset="0.51343" stop-color="white" stop-opacity="0"/>
</linearGradient>
</defs>
</svg>
