<svg width="80" height="30" viewBox="0 0 80 30" fill="none" xmlns="http://www.w3.org/2000/svg">
<path d="M37.7338 21.5218H35.4388C35.2476 21.5218 35.1137 21.3358 35.1711 21.1684L39.8376 8.26077C39.8949 8.11197 40.0288 8.01898 40.1818 8.01898H42.7637C42.9167 8.01898 43.0506 8.11197 43.1079 8.26077L47.7936 21.1684C47.8509 21.3358 47.7171 21.5218 47.5258 21.5218H45.2308L44.1407 18.3786C44.1024 18.267 44.0068 18.1926 43.8921 18.1926H39.0534C38.9387 18.1926 38.8239 18.267 38.8048 18.3786L37.7338 21.5218ZM39.5698 16.2211H43.4331L41.5588 10.7716H41.4441L39.5698 16.2211Z" fill="white"/>
<path d="M50.5858 21.1494V8.37198C50.5858 8.16739 50.7579 8 50.9683 8H55.9025C56.6484 8 57.2986 8.09299 57.8724 8.26038C58.4461 8.42777 58.9243 8.68816 59.2876 9.00434C59.651 9.32052 59.9379 9.6925 60.1291 10.1017C60.3204 10.5294 60.416 10.9944 60.416 11.4966C60.416 12.2777 60.1865 12.9101 59.7466 13.3937C59.3068 13.8772 58.7139 14.212 57.9872 14.3608V14.491C58.3697 14.5096 58.733 14.6026 59.0773 14.7514C59.4215 14.9188 59.7466 15.1234 60.0335 15.4024C60.3204 15.6813 60.5499 16.0161 60.7029 16.4439C60.8559 16.8717 60.9515 17.318 60.9515 17.8016C60.9515 18.341 60.8559 18.8245 60.6455 19.2709C60.4543 19.7173 60.1483 20.1079 59.7658 20.4427C59.3833 20.7774 58.886 21.0378 58.274 21.2238C57.662 21.4098 56.9735 21.5028 56.1894 21.5028H50.9491C50.7579 21.5214 50.5858 21.354 50.5858 21.1494ZM53.0911 13.7471H55.5774C56.2468 13.7471 56.8014 13.5797 57.2222 13.2263C57.662 12.8729 57.8724 12.4079 57.8724 11.8314C57.8724 11.292 57.6811 10.8642 57.2795 10.5294C56.897 10.1947 56.3424 10.0273 55.6156 10.0273H53.072V13.7471H53.0911ZM53.0911 19.4755H55.8069C56.6866 19.4755 57.3369 19.3081 57.7576 18.9919C58.1784 18.6758 58.3888 18.2294 58.3888 17.6528C58.3888 17.0391 58.1593 16.5369 57.7003 16.1277C57.2413 15.7185 56.6293 15.5325 55.8643 15.5325H53.0911V19.4755Z" fill="white"/>
<path d="M66.4595 8.27898V21.2238C66.4595 21.3726 66.3256 21.5028 66.1726 21.5028H64.241C64.088 21.5028 63.9541 21.3726 63.9541 21.2238V8.27898C63.9541 8.13019 64.088 8 64.241 8H66.1726C66.3256 8 66.4595 8.13019 66.4595 8.27898Z" fill="white"/>
<path d="M69.7298 21.2238V19.9777L76.8444 10.0459H69.9785C69.8255 10.0459 69.6916 9.91568 69.6916 9.76689V8.27898C69.6916 8.13019 69.8255 8 69.9785 8H79.6748C79.8278 8 79.9617 8.13019 79.9617 8.27898V9.52511L72.8472 19.4569H79.7131C79.8661 19.4569 80 19.5871 80 19.7359V21.2238C80 21.3726 79.8661 21.5028 79.7131 21.5028H70.0167C69.8637 21.5214 69.7298 21.3912 69.7298 21.2238Z" fill="white"/>
<path d="M23.8438 30H6.15624C2.75264 30 0 27.2474 0 23.8438V6.15623C0 2.75264 2.75264 0 6.15624 0H23.8438C27.2474 0 30 2.75264 30 6.15623V23.8438C30 27.2288 27.2474 30 23.8438 30Z" fill="#09B0E7"/>
<path d="M8.60156 22.5H23.0608C24.1339 22.5 25 21.6359 25 20.5651C25 19.4943 24.1339 18.6301 23.0608 18.6301H11.2185L8.60156 22.5Z" fill="url(#paint0_linear_1163_2810)"/>
<path d="M19.9921 18.1233L13.9862 9.55704C13.3649 8.67412 13.5909 7.47183 14.4569 6.8519C15.3418 6.23197 16.5467 6.4574 17.168 7.32154L24.793 18.1985L19.9921 18.1233Z" fill="url(#paint1_linear_1163_2810)"/>
<path d="M12.5364 8.95563L5.34445 19.1938C4.74199 20.058 4.94908 21.2603 5.81513 21.8614C6.68118 22.4626 7.8861 22.2559 8.48857 21.3918L15.0028 12.1116L12.5364 8.95563Z" fill="url(#paint2_linear_1163_2810)"/>
<defs>
<linearGradient id="paint0_linear_1163_2810" x1="21.3852" y1="29.4883" x2="4.0614" y2="20.5528" gradientUnits="userSpaceOnUse">
<stop offset="0.165372" stop-color="white"/>
<stop offset="0.568606" stop-color="white" stop-opacity="0.6"/>
<stop offset="0.718278" stop-color="white" stop-opacity="0"/>
</linearGradient>
<linearGradient id="paint1_linear_1163_2810" x1="16.0195" y1="6.00654" x2="20.1439" y2="28.177" gradientUnits="userSpaceOnUse">
<stop offset="0.103037" stop-color="white"/>
<stop offset="0.436149" stop-color="white" stop-opacity="0.6"/>
<stop offset="0.575776" stop-color="white" stop-opacity="0"/>
</linearGradient>
<linearGradient id="paint2_linear_1163_2810" x1="7.45309" y1="22.5377" x2="25.0025" y2="5.18744" gradientUnits="userSpaceOnUse">
<stop offset="0.0771973" stop-color="white"/>
<stop offset="0.332373" stop-color="white" stop-opacity="0.6"/>
<stop offset="0.51343" stop-color="white" stop-opacity="0"/>
</linearGradient>
</defs>
</svg>
